<svg version="1.1" xmlns="http://www.w3.org/2000/svg" viewBox="0 0 87.78746211986618 83.4884899962583" width="87.78746211986618" height="83.4884899962583">
  <!-- svg-source:excalidraw -->
  
  <defs>
    <style>
      @font-face {
        font-family: "Virgil";
        src: url("https://excalidraw.com/Virgil.woff2");
      }
      @font-face {
        font-family: "Cascadia";
        src: url("https://excalidraw.com/Cascadia.woff2");
      }
    </style>
  </defs>
  <g stroke-linecap="round"><g transform="translate(43.699408386967434 36.95645676279821) rotate(0 -0.879630994471654 -13.18812003464626)"><path d="M-0.12 0.58 C-0.01 -3.78, -0.43 -22.36, -0.36 -26.96 M-1.65 -0.16 C-1.63 -4.33, -1.72 -21.59, -1.5 -25.93" stroke="#aaa" stroke-width="1" fill="none"></path></g><g transform="translate(43.699408386967434 36.95645676279821) rotate(0 -0.879630994471654 -13.18812003464626)"><path d="M3.34 -14.02 C0.84 -15.92, -0.09 -19.37, -2.67 -25.6 M2.46 -13.2 C1.21 -16, 1.31 -19.24, -1.39 -25.9" stroke="#aaa" stroke-width="1" fill="none"></path></g><g transform="translate(43.699408386967434 36.95645676279821) rotate(0 -0.879630994471654 -13.18812003464626)"><path d="M-5.55 -14.2 C-6.15 -16.04, -5.19 -19.46, -2.67 -25.6 M-6.43 -13.37 C-5.88 -16.11, -3.99 -19.31, -1.39 -25.9" stroke="#aaa" stroke-width="1" fill="none"></path></g></g><g stroke-linecap="round"><g transform="translate(63.594619448738285 57.028431211796146) rotate(89.99999999999994 0.17280401579103 -13.000084701489698)"><path d="M0.64 1.02 C0.92 -3.55, 0.86 -22.6, 0.6 -27.02 M-0.48 0.51 C-0.22 -3.98, -0.36 -21.35, -0.04 -26.03" stroke="#aaa" stroke-width="1" fill="none"></path></g><g transform="translate(63.594619448738285 57.028431211796146) rotate(89.99999999999994 0.17280401579103 -13.000084701489698)"><path d="M5.18 -13.05 C2.04 -17.31, 2.84 -19.62, 0.23 -26.54 M3.92 -13.2 C2.64 -16.29, 1.74 -20.61, -0.24 -26.1" stroke="#aaa" stroke-width="1" fill="none"></path></g><g transform="translate(63.594619448738285 57.028431211796146) rotate(89.99999999999994 0.17280401579103 -13.000084701489698)"><path d="M-3.71 -13.29 C-4.96 -17.54, -2.28 -19.81, 0.23 -26.54 M-4.96 -13.44 C-3.94 -16.43, -2.54 -20.69, -0.24 -26.1" stroke="#aaa" stroke-width="1" fill="none"></path></g></g><g stroke-linecap="round"><g transform="translate(42.976178811398995 72.7141465589292) rotate(180 -0.12976111806938206 -12.691876813333522)"><path d="M-0.99 0.77 C-0.87 -3.75, 0.38 -21.58, 0.73 -26.16 M0.69 0.14 C0.72 -4.28, 0.12 -20.4, 0.17 -24.71" stroke="#aaa" stroke-width="1" fill="none"></path></g><g transform="translate(42.976178811398995 72.7141465589292) rotate(180 -0.12976111806938206 -12.691876813333522)"><path d="M5.63 -11.78 C3.12 -15.02, 1.16 -19.82, 0.83 -25.48 M4.54 -12.97 C3.87 -15.71, 2.97 -19.61, 0.65 -24.54" stroke="#aaa" stroke-width="1" fill="none"></path></g><g transform="translate(42.976178811398995 72.7141465589292) rotate(180 -0.12976111806938206 -12.691876813333522)"><path d="M-3.25 -11.64 C-3.1 -14.86, -2.39 -19.7, 0.83 -25.48 M-4.35 -12.83 C-2.62 -15.53, -1.12 -19.47, 0.65 -24.54" stroke="#aaa" stroke-width="1" fill="none"></path></g></g><g stroke-linecap="round"><g transform="translate(23.561292294779378 56.394032597243495) rotate(270 -0.45910282074612496 -13.589542572798223)"><path d="M0.38 -0.49 C0.26 -4.82, -0.17 -20.83, -0.22 -25.06 M-0.89 -1.79 C-1.22 -6.53, -1.33 -22.91, -1.29 -26.69" stroke="#aaa" stroke-width="1" fill="none"></path></g><g transform="translate(23.561292294779378 56.394032597243495) rotate(270 -0.45910282074612496 -13.589542572798223)"><path d="M2.64 -14.72 C2.57 -18.5, 0.17 -22.98, -0.54 -26.13 M2.63 -14.75 C1.82 -17.65, 0.64 -20.96, -0.8 -26.48" stroke="#aaa" stroke-width="1" fill="none"></path></g><g transform="translate(23.561292294779378 56.394032597243495) rotate(270 -0.45910282074612496 -13.589542572798223)"><path d="M-6.25 -14.72 C-3.31 -18.53, -2.69 -23.01, -0.54 -26.13 M-6.26 -14.75 C-4.52 -17.7, -3.16 -21.01, -0.8 -26.48" stroke="#aaa" stroke-width="1" fill="none"></path></g></g></svg>